Coordinates
version=1
nRows=14
nColumns=24
inDegrees=yes

Units are S.I. units (second, meters, Newtons, ...)
Angles are in degrees.

endheader
time	pelvis_tilt	pelvis_list	pelvis_rotation	pelvis_tx	pelvis_ty	pelvis_tz	hip_flexion_r	hip_adduction_r	hip_rotation_r	knee_angle_r	ankle_angle_r	subtalar_angle_r	mtp_angle_r	hip_flexion_l	hip_adduction_l	hip_rotation_l	knee_angle_l	ankle_angle_l	subtalar_angle_l	mtp_angle_l	lumbar_extension	lumbar_bending	lumbar_rotation
      4.45500000	    -10.59799741	      4.71862959	     -3.63104894	     -0.80023156	     -0.02206922	     -0.73156269	     15.06825720	     -6.15523474	     -3.67444826	    -58.84226846	    -25.79762323	    -14.29254814	      3.39981462	     28.96027271	      5.42230270	    -14.19644842	    -24.06252638	      1.24139434	    -10.91756056	      3.47331803	      7.44424210	     -5.74457534	      1.85627165
      4.46000000	    -10.67438337	      4.70290953	     -3.52876584	     -0.79476005	     -0.02146085	     -0.73205573	     16.08664940	     -6.13641945	     -3.60886124	    -60.09479273	    -25.73026369	    -15.01042298	      3.27852869	     28.55888508	      5.52789312	    -14.10436116	    -23.85750324	      1.52210307	    -10.80009409	      3.65568322	      7.48919487	     -5.73562872	      1.60083005
      4.46500000	    -10.66797543	      4.70704455	     -3.39313858	     -0.78926187	     -0.02073947	     -0.73264186	     16.98677726	     -6.17483435	     -3.58796921	    -61.25458446	    -25.42830724	    -15.54133668	      3.26143797	     28.04534524	      5.69161329	    -13.96591066	    -23.60909206	      1.78582696	    -10.69273475	      3.75826940	      7.44010732	     -5.75199629	      1.30801352
      4.47000000	    -10.80804672	      4.65594731	     -3.28632136	     -0.78396832	     -0.02015195	     -0.73310449	     18.07639185	     -6.09837597	     -3.52399031	    -62.37647612	    -24.98828680	    -16.13255846	      3.09502297	     27.72983254	      5.75559009	    -13.85830796	    -23.41336425	      1.98615353	    -10.63228800	      3.81514825	      7.52463448	     -5.70471802	      1.00723768
      4.47500000	    -10.93709615	      4.57733254	     -3.16241614	     -0.77863842	     -0.01957036	     -0.73366824	     19.12542709	     -6.01975341	     -3.50727149	    -63.41642889	    -24.26932384	    -16.49742441	      2.87313936	     27.39053943	      5.81909114	    -13.67017490	    -23.20707830	      2.23796694	    -10.60580854	      3.81102404	      7.60614721	     -5.61465296	      0.77147907
      4.48000000	    -10.92076241	      4.51426783	     -3.05203103	     -0.77324717	     -0.01875744	     -0.73420226	     19.98149838	     -5.96596154	     -3.48891060	    -64.31725911	    -23.53217596	    -16.86547126	      2.90582606	     26.84405266	      5.91191851	    -13.46795771	    -22.91610181	      2.48193123	    -10.53506920	      3.82499392	      7.54223549	     -5.55025570	      0.50546295
      4.48500000	    -11.07619705	      4.41546069	     -2.94092923	     -0.76802443	     -0.01816045	     -0.73474565	     21.04493760	     -5.85153897	     -3.44545052	    -65.19721079	    -22.53112609	    -16.98429385	      2.76936705	     26.53263471	      5.95026584	    -13.26336121	    -22.69530170	      2.67537444	    -10.56301464	      3.66554236	      7.64338037	     -5.43222932	      0.26318675
      4.49000000	    -11.04657124	      4.31994622	     -2.85006102	     -0.76269750	     -0.01727577	     -0.73521078	     21.85755873	     -5.74912093	     -3.44079038	    -65.90949842	    -21.65561585	    -17.32955322	      2.87404016	     25.96111416	      5.99559760	    -13.05489287	    -22.38294592	      2.87684454	    -10.47879212	      3.65865894	      7.56355539	     -5.33278046	      0.05173603
      4.49500000	    -11.15934457	      4.23287242	     -2.72753099	     -0.75744775	     -0.01661008	     -0.73579323	     22.83478795	     -5.66262050	     -3.40004248	    -66.60593614	    -20.51337394	    -17.23044669	      2.92784843	     25.57381680	      6.05445595	    -12.87974524	    -22.10295365	      3.06296952	    -10.47614300	      3.49768682	      7.62857985	     -5.22509186	     -0.24997212
      4.50000000	    -11.21184372	      4.14095310	     -2.63198663	     -0.75217399	     -0.01584722	     -0.73633823	     23.72683614	     -5.56925760	     -3.37677728	    -67.19241146	    -19.44595130	    -17.26213104	      2.98338583	     25.09277971	      6.10588178	    -12.67954679	    -21.77967131	      3.25595421	    -10.45505164	      3.32346437	      7.63776888	     -5.10940019	     -0.45501228
      4.50500000	    -11.23059353	      4.04251501	     -2.54334740	     -0.74687390	     -0.01504525	     -0.73689431	     24.56308839	     -5.47625127	     -3.36595097	    -67.68442077	    -18.42907806	    -17.28531711	      3.09231245	     24.55449466	      6.15075777	    -12.48570728	    -21.42278522	      3.47078743	    -10.41238864	      3.20097723	      7.61733530	     -4.98070024	     -0.65887561
      4.51000000	    -11.24533331	      3.93817253	     -2.45338938	     -0.74158826	     -0.01420831	     -0.73741385	     25.36740932	     -5.36574454	     -3.34109540	    -68.07826865	    -17.38264772	    -17.24909820	      3.21490763	     24.00971801	      6.18147839	    -12.31656976	    -21.05746530	      3.62147436	    -10.36808594	      3.03622510	      7.59234887	     -4.84966853	     -0.85293817
      4.51500000	    -11.23383113	      3.84193903	     -2.36851172	     -0.73626972	     -0.01337507	     -0.73797759	     26.13123649	     -5.28107919	     -3.33923047	    -68.39269137	    -16.43646433	    -17.25344674	      3.34894000	     23.41454262	      6.22562513	    -12.14381642	    -20.65497740	      3.81556705	    -10.30982694	      2.92665040	      7.54807072	     -4.71888327	     -1.03526507
      4.52000000	    -11.20879003	      3.74408721	     -2.27757497	     -0.73094579	     -0.01250942	     -0.73851081	     26.85132658	     -5.19170526	     -3.33555665	    -68.61115881	    -15.50746946	    -17.21546473	      3.48988417	     22.79459476	      6.26379692	    -11.98828252	    -20.23164987	      3.97094759	    -10.23774257	      2.80821518	      7.48833442	     -4.58846502	     -1.21489856
